<svg width="14" height="20" viewBox="0 0 14 20" fill="none" xmlns="http://www.w3.org/2000/svg">
<path d="M6.93575 0.622559C3.16974 0.622559 0.104067 3.7074 0.104065 7.49694C0.104063 14.1649 6.55061 19.2341 6.55061 19.2341C6.66065 19.3225 6.79726 19.3706 6.93804 19.3706C7.07883 19.3706 7.21543 19.3225 7.32548 19.2341C7.32548 19.2341 13.772 14.1649 13.772 7.49694C13.772 3.7074 10.7018 0.622559 6.93575 0.622559ZM6.93575 1.87287C10.0304 1.87287 12.5295 4.38294 12.5295 7.49694C12.5295 12.9519 7.62065 17.2617 6.94034 17.8454C6.26327 17.2646 1.3466 12.954 1.34661 7.49694C1.34661 4.38294 3.84109 1.87287 6.93575 1.87287Z" fill="white"/>
<path d="M6.93576 4.37354C5.22795 4.37354 3.8317 5.77852 3.8317 7.497C3.83168 9.2155 5.22794 10.6251 6.93576 10.6251C8.64358 10.6251 10.0444 9.2155 10.0444 7.497C10.0444 5.77852 8.64357 4.37354 6.93576 4.37354ZM6.93576 5.62384C7.97221 5.62384 8.80186 6.45406 8.80186 7.497C8.80187 8.53993 7.97222 9.37476 6.93576 9.37476C5.89929 9.37476 5.07423 8.53993 5.07424 7.497C5.07424 6.45406 5.8993 5.62384 6.93576 5.62384Z" fill="white"/>
</svg>
